
<svg xmlns="http://www.w3.org/2000/svg" version="1.1" xmlns:xlink="http://www.w3.org/1999/xlink" preserveAspectRatio="none" x="0px" y="0px" width="1245px" height="1080px" viewBox="0 0 1245 1080">
<defs>
<g id="Layer1_0_FILL">
<path fill="#6BC79A" stroke="none" d="
M 1085.75 840.5
L 1079.35 839.6
Q 978.7 910.3 866.4 957.45 866.2 958.7 866.15 960 863.9 980.95 861.45 1001.85 976.55 954.1 1079.35 881.9 1082.8 861.35 1085.75 840.5
M 1153 112.85
L 1154 109.15
Q 1063.45 84.3 939.3 68.4 878.3 73.15 819.95 79.7 957.5 100.15 1079.45 121.55
L 1079.6 123.35
Q 1114.6 120.65 1151.35 119.1
L 1153 112.85 Z"/>

<path fill="#E35F5F" stroke="none" d="
M 643.8 1025.5
L 643.8 1067.75
Q 757.6 1044.85 861.45 1001.85 863.9 980.95 866.15 960
L 861.45 959.5
Q 757.6 1002.5 643.8 1025.5
M 1203.45 313.6
L 1198.6 313.75 1193.85 313.9
Q 1181.55 316.6 1169.35 319.5
L 1168.95 324.75
Q 1174.1 434.85 1170.75 549.1 1170.55 552.95 1170.4 556.9
L 1175.1 564.3
Q 1175.25 564.1 1175.55 563.95 1177.55 562.7 1179.6 561.4
L 1179.6 561.35
Q 1179.85 561.1 1180.15 560.9 1191.65 553.45 1203.05 545.65
L 1204.85 545.65
Q 1208.7 427.3 1203.45 313.6 Z"/>

<path fill="#EF6F6F" stroke="none" d="
M 380.8 689.4
Q 260.55 648.6 143.4 596.6 149.1 737.05 170 879.15
L 169.35 880.3
Q 271.15 940.8 394.5 988.9
L 395.6 986.25
Q 393.7 961.6 392 936.8 391.65 931.4 391.25 925.95 312.65 895.8 243.15 859.6 312.65 895.8 391.25 925.95 383.35 808.15 380.8 689.4
M 44.75 115.15
L 44.65 115.15 43.9 115.05 43.1 115.05
Q 26.95 212.7 20.2 311.45
L 22.1 311.55
Q 84.35 321.2 146.55 333.85 153.2 228.45 169.1 125.75 105.7 118.45 44.75 115.15
M 600.85 43.2
L 601.15 49.2
Q 613.55 50.85 625.95 52.45 627.5 52.7 629.15 52.9
L 673.1 46.15
Q 637.85 44.45 600.85 43.2
M 880.6 398.65
Q 874.65 278 861.15 154.35 739 180.95 643.8 226.55
L 643.8 482.5
Q 761.45 436.45 880.6 398.65
M 650 762.15
Q 649.8 762.15 649.65 762.15
L 643.8 763.2 643.8 764.45 643.8 784.05 645.45 784.65 643.8 784.05 643.8 1025.5
Q 757.6 1002.5 861.45 959.5
L 866.15 960
Q 866.2 958.7 866.4 957.45 879.2 833.45 883.35 706.35 770.1 744.9 650 762.15
M 1169.35 319.5
Q 1168.6 319.65 1167.8 319.9 1134.15 327.7 1100.65 336.05 1110.05 476.5 1105.75 606.2 1138.65 587.6 1170.9 566.9 1172.95 565.6 1175.1 564.3
L 1170.4 556.9
Q 1170.55 552.95 1170.75 549.1 1174.1 434.85 1168.95 324.75
L 1169.35 319.5
M 1079.35 122.85
L 1079.35 122.6 1079.25 122.3 1079.45 121.55
Q 957.5 100.15 819.95 79.7 726.45 90.3 640.2 105.65 765 126.2 861.15 152.65
L 861.45 154.3
Q 961.4 132.55 1079.35 123.35
L 1079.35 122.85 Z"/>

<path fill="#F0BF96" stroke="none" d="
M 643.6 764.35
L 643.8 763.2 643.8 762.15 643.8 482.6
Q 513.45 431 382.65 392.5 379.5 483.65 379.5 574.85 379.5 632.2 380.8 689.4 510.25 733.35 643.35 764.3 643.5 764.35 643.6 764.35
M 19.05 537.8
L 17.35 537.85
Q 22.5 664.95 43.1 793.8 101.4 839.75 169.25 880.2
L 170 879.15
Q 149.1 737.05 143.4 596.6 80.8 568.8 19.05 537.8
M 629.15 52.9
L 625.8 53.45
Q 612.9 54.2 600.35 55.1 485.35 62.65 397.25 73.8 529.95 87.4 640.2 105.65 726.45 90.3 819.95 79.7 728 66.1 629.15 52.9
M 567.95 44.85
Q 584.1 47 600.1 49.05 600.6 49.1 601.15 49.2
L 600.85 43.2
Q 584.25 43.45 567.95 43.85
L 567.95 44.85
M 880.6 398.65
Q 888.2 554.85 883.35 706.35 998.05 667.3 1105.75 606.2 1110.05 476.5 1100.65 336.05 990 363.95 880.6 398.65
M 861.45 154.3
L 861.15 152.65
Q 765 126.2 640.2 105.65 510.35 128.7 397.05 162.55
L 396.9 163.3
Q 516.6 188.55 643.8 226.55 739 180.95 861.15 154.35 861.3 154.3 861.45 154.3
M 1203.45 313.6
L 1203.45 313.4 1198.6 313.75 1203.45 313.6
M 1079.45 123.35
Q 1079.35390625 123.0615234375 1079.35 122.85
L 1079.35 123.35 1079.45 123.35
M 1151.45 119.6
L 1151.35 119.1
Q 1114.6 120.65 1079.6 123.35
L 1079.45 123.45
Q 1093.8 232.6 1100.65 336.05 1134.15 327.7 1167.8 319.9 1168.6 319.65 1169.35 319.5
L 1167.7 312.35
Q 1163 214.25 1151.45 119.6 Z"/>

<path fill="#81BAE5" stroke="none" d="
M 643.8 784.05
L 643.8 764.45
Q 643.75 764.35 643.6 764.35 643.5 764.35 643.35 764.3 510.25 733.35 380.8 689.4 383.35 808.15 391.25 925.95 405.95 931.65 420.85 937.05 405.95 931.65 391.25 925.95 391.65 931.4 392 936.8 393.7 961.6 395.6 986.25
L 394.5 988.9
Q 509.8 1033.75 643.8 1067.75
L 643.8 1025.5 643.8 784.05
M 480.15 958.85
Q 467.7 954.85 455.4 950.65 467.7 954.85 480.15 958.85
M 22.1 311.55
L 20.2 311.45
Q 12.65 423.9 17.35 537.85
L 19.05 537.8
Q 80.8 568.8 143.4 596.6 141.45 545.1 141.45 493.9 141.35 413.1 146.55 333.85 84.35 321.2 22.1 311.55
M 293.35 64.1
L 293.3 63.45
Q 156.7 80.95 44.8 113.35
L 44.95 114.8 45.9 114.75 46.55 114.55
Q 46.95 114.5 47.25 114.5 51.6 113.9 55.95 113.35 51.6 113.9 47.25 114.5 46.95 114.5 46.55 114.55
L 45.9 114.75 44.8 114.9 44.75 115.15
Q 105.7 118.45 169.1 125.75 169.1 125.3 169.15 125
L 170.8 123.7
Q 242.6 93.3 397.25 73.8 346.95 68.65 293.35 64.1
M 395.4 163.85
L 395.6 163.05
Q 279.45 138.55 170.55 125.9
L 170.5 125.9
Q 170.3 125.9 170.15 125.9 169.65 125.8 169.1 125.75 153.2 228.45 146.55 333.85 264.85 357.8 382.65 392.5 386.55 278.15 395.4 163.85
M 1157.6 767.5
L 1158.65 756.65
Q 1167.6 660.35 1170.9 566.9 1138.65 587.6 1105.75 606.2 1101.9 724.75 1086.55 834.5 1097.25 826.9 1107.75 819 1132.4 800.55 1156.3 780.6 1156.45 778.95 1156.6 777.35 1156.7 776.75 1156.8 776.1 1157.2 771.75 1157.6 767.5
M 1175.55 563.95
Q 1175.25 564.1 1175.1 564.3 1172.95 565.6 1170.9 566.9
L 1181.8 567.4
Q 1181.8 566.1 1181.8 564.85
L 1180.15 560.9
Q 1179.85 561.1 1179.6 561.35
L 1179.6 561.4
Q 1177.55 562.7 1175.55 563.95
M 1203.05 545.65
L 1204.85 545.75 1204.85 545.65 1203.05 545.65
M 1079.45 123.45
L 1079.45 123.35 1079.35 123.35
Q 961.4 132.55 861.45 154.3 861.3 154.3 861.15 154.35 874.65 278 880.6 398.65 990 363.95 1100.65 336.05 1093.8 232.6 1079.45 123.45 Z"/>

<path fill="#8CE3B9" stroke="none" d="
M 141.45 493.9
Q 141.45 545.1 143.4 596.6 260.55 648.6 380.8 689.4 379.5 632.2 379.5 574.85 379.5 483.65 382.65 392.5 264.85 357.8 146.55 333.85 141.35 413.1 141.45 493.9
M 396.9 163.3
L 395.4 163.85
Q 386.55 278.15 382.65 392.5 513.45 431 643.8 482.6
L 643.8 482.5 643.8 226.55
Q 516.6 188.55 396.9 163.3
M 395.6 163.05
L 397.05 162.55
Q 510.35 128.7 640.2 105.65 529.95 87.4 397.25 73.8 242.6 93.3 170.8 123.7
L 170.55 125.9
Q 279.45 138.55 395.6 163.05
M 600.1 49.05
Q 584.1 47 567.95 44.85
L 567.95 43.85
Q 420.05 47.2 293.3 63.45
L 293.35 64.1
Q 346.95 68.65 397.25 73.8 485.35 62.65 600.35 55.1
L 601.15 49.2
Q 600.6 49.1 600.1 49.05
M 1105.75 606.2
Q 998.05 667.3 883.35 706.35 879.2 833.45 866.4 957.45 978.7 910.3 1079.35 839.6
L 1085.75 840.5
Q 1086.15 837.45 1086.55 834.5 1101.9 724.75 1105.75 606.2
M 649.65 762.15
Q 649.8 762.15 650 762.15 770.1 744.9 883.35 706.35 888.2 554.85 880.6 398.65 761.45 436.45 643.8 482.5
L 643.8 482.6 643.8 762.15 649.65 762.15
M 1154 109.15
L 1153 112.85 1154.1 109.25 1154 109.15 Z"/>

<path fill="#8FE7BD" stroke="none" d="
M 625.8 53.45
L 629.15 52.9
Q 627.5 52.7 625.95 52.45 613.55 50.85 601.15 49.2
L 600.35 55.1
Q 612.9 54.2 625.8 53.45 Z"/>

<path fill="#6FAAD7" stroke="none" d="
M 1191.15 756.5
L 1191.1 757.25
Q 1191.1064453125 757.237109375 1191.15 757.15 1191.15 756.8 1191.15 756.5
M 1204.85 545.75
L 1203.05 545.65
Q 1191.65 553.45 1180.15 560.9
L 1181.8 564.85
Q 1181.8 566.1 1181.8 567.4
L 1170.9 566.9
Q 1167.6 660.35 1158.65 756.65
L 1157.6 767.5
Q 1157.2 771.75 1156.8 776.1 1156.7 776.75 1156.6 777.35 1156.45 778.95 1156.3 780.6 1132.4 800.55 1107.75 819 1097.25 826.9 1086.55 834.5 1086.15 837.45 1085.75 840.5 1082.8 861.35 1079.35 881.9 1093.6 871.85 1107.75 861.35 1136.5 839.75 1164.35 816.2 1175.75 806.55 1186.95 796.45 1188.7 780.95 1190.25 765.5 1190.4 764.35 1190.5 763.2 1190.5 762.65 1190.6 762.15
L 1191.1 757.65 1191.1 757.25 1191.15 756.5
Q 1189.7 757.4 1187.7 756.65 1186.05 756 1185.6 754.35 1184.85 751.9 1186.75 750.15 1187.8 749.25 1189.2 749.2 1190.75 749.25 1191.75 750.15
L 1192 747.7
Q 1192.05 747.2 1192.05 746.75
L 1192.4 743.75
Q 1192.4 743.45 1192.4 743.1
L 1193.3 733.5
Q 1201.9 638.2 1204.85 545.75
M 819.95 79.7
Q 878.3 73.15 939.3 68.4 821.75 53.3 674.1 46.25 673.6 46.15 673.1 46.15
L 629.15 52.9
Q 728 66.1 819.95 79.7 Z"/>

<path fill="#75D5A7" stroke="none" d="
M 1162.1 111.45
Q 1158.1 110.3 1154.1 109.25
L 1153 112.85 1151.35 119.1
Q 1155.7 118.9 1160.15 118.75 1160.05 118.35 1160.05 117.95 1160.05 118.35 1160.15 118.75 1171.9 118.25 1183.85 117.95 1173.2 114.55 1162.1 111.45 Z"/>

<path fill="#E6B286" stroke="none" d="
M 1186.95 117.95
L 1183.85 117.95
Q 1171.9 118.25 1160.15 118.75 1155.7 118.9 1151.35 119.1
L 1151.45 119.6
Q 1163 214.25 1167.7 312.35
L 1169.35 319.5
Q 1181.55 316.6 1193.85 313.9
L 1194.6 313.75 1194.65 313.75 1195.2 313.6 1202.55 311.8 1203.3 311.6
Q 1198.6 213 1186.95 117.95 Z"/>
</g>

<path id="Layer1_0_1_STROKES" stroke="#3F395D" stroke-width="12" stroke-linejoin="round" stroke-linecap="round" fill="none" d="
M 1183.85 117.95
L 1186.95 117.95
Q 1198.6 213 1203.3 311.6
L 1203.3 311.8
Q 1203.4 312.6 1203.45 313.4
L 1203.45 313.6
Q 1208.7 427.3 1204.85 545.65
L 1204.85 545.75
Q 1201.9 638.2 1193.3 733.5
L 1192.4 743.1
Q 1192.4 743.45 1192.4 743.75
L 1192.05 746.75
Q 1192.05 747.2 1192 747.7
L 1191.75 750.15 1191.15 756.5
Q 1191.15 756.8 1191.15 757.15 1191.1064453125 757.237109375 1191.1 757.275
L 1191.1 757.65 1190.6 762.15
Q 1190.5 762.65 1190.5 763.2 1190.4 764.35 1190.25 765.5 1188.7 780.95 1186.95 796.45 1175.75 806.55 1164.35 816.2 1136.5 839.75 1107.75 861.35 1093.6 871.85 1079.35 881.9 976.55 954.1 861.45 1001.85 757.6 1044.85 643.8 1067.75 509.8 1033.75 394.5 988.9 271.15 940.8 169.35 880.3
L 169.25 880.2
Q 101.4 839.75 43.1 793.8 22.5 664.95 17.35 537.85 12.65 423.9 20.2 311.45 26.95 212.7 43.1 115.05
L 44.4 114.9 44.25 114.9 44.95 114.8
M 44.8 113.35
Q 156.7 80.95 293.3 63.45 420.05 47.2 567.95 43.85 584.25 43.45 600.85 43.2 637.85 44.45 673.1 46.15 673.6 46.15 674.1 46.25 821.75 53.3 939.3 68.4 1063.45 84.3 1154 109.15
L 1154.1 109.25
Q 1158.1 110.3 1162.1 111.45 1173.2 114.55 1183.85 117.95 1171.9 118.25 1160.15 118.75 1155.7 118.9 1151.35 119.1
M 1169.35 319.5
Q 1181.55 316.6 1193.85 313.9
L 1194.6 313.75 1194.65 313.75 1195.2 313.6 1202.55 311.8 1203.3 311.6
M 1160.05 117.95
Q 1160.05 118.35 1160.15 118.75
M 1079.25 122.3
L 1079.35 122.6 1079.35 122.875
Q 1079.35390625 123.0615234375 1079.45 123.35 1079.5 123.35 1079.6 123.35
M 1079.35 123.35
L 1079.45 123.35 1079.45 123.45
M 1151.35 119.1
Q 1114.6 120.65 1079.6 123.35
M 1195.2 313.6
Q 1198.3 312.95 1201.5 312.2
L 1202.55 311.8
M 1100.65 336.05
Q 1134.15 327.7 1167.8 319.9 1168.6 319.65 1169.35 319.5
M 1175.1 564.3
Q 1175.25 564.1 1175.55 563.95 1177.55 562.7 1179.6 561.4
L 1179.6 561.35
Q 1179.85 561.1 1180.15 560.9 1191.65 553.45 1203.05 545.65
M 1079.45 123.45
Q 1093.8 232.6 1100.65 336.05 1110.05 476.5 1105.75 606.2 1138.65 587.6 1170.9 566.9 1172.95 565.6 1175.1 564.3
M 1079.35 123.35
Q 961.4 132.55 861.45 154.3 861.3 154.3 861.15 154.35 874.65 278 880.6 398.65 990 363.95 1100.65 336.05
M 866.4 957.45
Q 879.2 833.45 883.35 706.35 770.1 744.9 650 762.15 649.8 762.15 649.65 762.15
L 643.8 763.2 643.8 764.45 643.8 784.05 645.45 784.65
M 880.6 398.65
Q 888.2 554.85 883.35 706.35 998.05 667.3 1105.75 606.2 1101.9 724.75 1086.55 834.5
M 1191.15 756.5
L 1191.1 757.275
M 567.95 44.85
Q 584.1 47 600.1 49.05 600.6 49.1 601.15 49.2
M 396.9 163.3
Q 396.15 163.15 395.6 163.05 279.45 138.55 170.55 125.9
L 170.5 125.9
Q 170.3 125.9 170.15 125.9 169.65 125.8 169.1 125.75 153.2 228.45 146.55 333.85 264.85 357.8 382.65 392.5 386.55 278.15 395.4 163.85
M 643.8 226.55
Q 516.6 188.55 396.9 163.3
M 169.15 125
Q 169.1 125.3 169.1 125.75 105.7 118.45 44.75 115.15
L 44.65 115.15
M 43.9 115.05
L 43.1 115.05
M 55.95 113.35
Q 51.6 113.9 47.25 114.5 46.95 114.5 46.55 114.55
L 45.9 114.75 44.8 114.9
M 44.65 115.15
Q 44.5 115.05 44.3 115.05 44.05 115.05 43.9 115.05
M 44.8 114.9
L 44.4 114.9
M 44.95 114.8
L 45.9 114.75
M 22.1 311.55
Q 84.35 321.2 146.55 333.85 141.35 413.1 141.45 493.9 141.45 545.1 143.4 596.6 260.55 648.6 380.8 689.4 379.5 632.2 379.5 574.85 379.5 483.65 382.65 392.5 513.45 431 643.8 482.6
L 643.8 482.5 643.8 226.55
Q 739 180.95 861.15 154.35
M 19.05 537.8
Q 80.8 568.8 143.4 596.6 149.1 737.05 170 879.15
M 643.8 763.2
L 643.8 762.15 643.8 482.6
M 643.6 764.35
Q 643.5 764.35 643.35 764.3 510.25 733.35 380.8 689.4 383.35 808.15 391.25 925.95
M 643.8 764.45
Q 643.75 764.35 643.6 764.35
M 395.6 986.25
Q 393.7 961.6 392 936.8 391.65 931.4 391.25 925.95
M 643.8 1025.5
L 643.8 1067.75
M 1086.55 834.5
Q 1086.15 837.45 1085.75 840.5 1082.8 861.35 1079.35 881.9
M 866.4 957.45
Q 866.2 958.7 866.15 960 863.9 980.95 861.45 1001.85
M 643.8 784.05
L 643.8 1025.5
M 643.8 482.5
Q 761.45 436.45 880.6 398.65"/>

<path id="Layer1_0_2_STROKES" stroke="#3F395D" stroke-width="8" stroke-linejoin="round" stroke-linecap="round" fill="none" d="
M 939.3 68.4
Q 878.3 73.15 819.95 79.7 957.5 100.15 1079.45 121.55
M 629.15 52.9
Q 627.5 52.7 625.95 52.45 613.55 50.85 601.15 49.2
M 600.35 55.1
Q 612.9 54.2 625.8 53.45
M 397.05 162.55
Q 510.35 128.7 640.2 105.65 529.95 87.4 397.25 73.8 242.6 93.3 170.8 123.7
M 600.35 55.1
Q 485.35 62.65 397.25 73.8 346.95 68.65 293.35 64.1
M 819.95 79.7
Q 726.45 90.3 640.2 105.65 765 126.2 861.15 152.65
M 629.15 52.9
Q 728 66.1 819.95 79.7"/>

<path id="Layer1_0_3_STROKES" stroke="#3F395D" stroke-width="15" stroke-linejoin="round" stroke-linecap="round" fill="none" d="
M 1233.5 724.75
Q 1232.85 734.1 1232.1 743.45
L 1231.95 745.5
M 1117.65 899.05
Q 1131.95 889.05 1146.05 878.55 1174.85 857 1202.65 833.45 1206.25 830.4 1209.8 827.3 1217.55 820.55 1225.3 813.65 1227 798.15 1228.55 782.75 1228.75 781.6 1228.8 780.45 1228.8 779.85 1228.9 779.4
M 246.95 39.45
Q 261.7 36.7 276.65 34.25
M 309.85 29
Q 412.8 14 532.9 12.1"/>

<path id="Layer1_0_4_STROKES" stroke="#FFFFFF" stroke-width="20" stroke-linejoin="round" stroke-linecap="round" fill="none" d="
M 420.85 937.05
Q 405.95 931.65 391.25 925.95 312.65 895.8 243.15 859.6
M 480.15 958.85
Q 467.7 954.85 455.4 950.65"/>
</defs>

<g transform="matrix( 1, 0, 0, 1, 0,0) ">
<use xlink:href="#Layer1_0_FILL"/>

<use xlink:href="#Layer1_0_1_STROKES"/>

<use xlink:href="#Layer1_0_2_STROKES"/>

<use xlink:href="#Layer1_0_3_STROKES"/>

<use xlink:href="#Layer1_0_4_STROKES"/>
</g>
</svg>
