
<svg xmlns="http://www.w3.org/2000/svg" version="1.1" xmlns:xlink="http://www.w3.org/1999/xlink" preserveAspectRatio="none" x="0px" y="0px" width="1155px" height="990px" viewBox="0 0 1155 990">
<defs>
<g id="Layer1_0_FILL">
<path fill="#E35F5F" stroke="none" d="
M 608.75 936.75
L 608.75 976.25
Q 715.15 954.85 812.25 914.65 814.55 895.1 816.65 875.55
L 812.25 875.1
Q 715.15 915.3 608.75 936.75
M 1123.3 271.4
L 1123.1 271.4
Q 1111.6 273.9 1100.15 276.6
L 1099.75 281.5
Q 1104.6 384.45 1101.45 491.3 1101.3 494.9 1101.15 498.6
L 1105.55 505.5
Q 1105.7 505.35 1106 505.2 1107.85 504.05 1109.75 502.8
L 1109.75 502.75
Q 1110 502.5 1110.3 502.35 1121 495.4 1131.7 488.1
L 1133.35 488.1
Q 1137 377.4 1132.05 271.1
L 1127.55 271.25 1123.3 271.4 Z"/>

<path fill="#EF6F6F" stroke="none" d="
M 362.85 622.5
Q 250.4 584.35 140.85 535.75 146.15 667.05 165.7 799.9
L 165.1 801
Q 260.3 857.6 375.65 902.55
L 376.65 900.1
Q 374.9 877 373.25 853.85 372.95 848.75 372.6 843.7 365.2 733.55 362.85 622.5
M 608.75 691.5
L 608.75 692.65 608.75 711 610.3 711.55 608.75 711 608.75 936.75
Q 715.15 915.3 812.25 875.1
L 816.65 875.55
Q 816.7 874.3 816.85 873.15 828.85 757.2 832.75 638.35 726.8 674.4 614.5 690.5 614.35 690.5 614.2 690.5
L 608.75 691.5
M 47.8 85.45
L 47.05 85.45
Q 31.9 176.75 25.65 269.1
L 27.4 269.15
Q 85.6 278.2 143.75 290.05 149.95 191.45 164.85 95.4 105.55 88.6 48.55 85.55
L 48.5 85.55 47.8 85.45
M 568.9 23.85
Q 580.45 25.4 592.05 26.9 593.5 27.15 595.05 27.3
L 636.15 21
Q 603.15 19.4 568.55 18.25
L 568.9 23.85
M 830.15 350.65
Q 824.6 237.8 811.95 122.2 697.75 147.05 608.75 189.7
L 608.75 429.05
Q 718.75 386 830.15 350.65
M 1100.15 276.6
Q 1099.45 276.75 1098.7 277 1067.25 284.3 1035.95 292.1 1044.7 423.45 1040.7 544.7 1071.45 527.3 1101.6 507.95 1103.55 506.75 1105.55 505.5
L 1101.15 498.6
Q 1101.3 494.9 1101.45 491.3 1104.6 384.45 1099.75 281.5
L 1100.15 276.6
M 1015.95 92.2
L 1016.1 91.5
Q 902.1 71.5 773.45 52.4 686 62.3 605.4 76.65 722.05 95.9 811.95 120.6
L 812.25 122.1
Q 905.7 101.8 1016 93.2
L 1016 92.8 1016 92.5 1015.95 92.2 Z"/>

<path fill="#F0BF96" stroke="none" d="
M 608.55 692.6
L 608.75 691.5 608.75 690.5 608.75 429.1
Q 486.85 380.85 364.55 344.9 361.6 430.1 361.6 515.4 361.6 569 362.85 622.5 483.9 663.6 608.3 692.5 608.45 692.6 608.55 692.6
M 24.55 480.75
L 22.95 480.8
Q 27.8 599.65 47.05 720.15 101.55 763.1 165 800.9
L 165.7 799.9
Q 146.15 667.05 140.85 535.75 82.3 509.7 24.55 480.75
M 281.05 37.8
L 281 37.2
Q 153.25 53.55 48.65 83.85
L 48.8 85.2 49.65 85.15 50.25 85
Q 50.65 84.9 50.95 84.9 55 84.4 59.05 83.85 55 84.4 50.95 84.9 50.65 84.9 50.25 85
L 49.65 85.15 48.65 85.3 48.55 85.55
Q 105.55 88.6 164.85 95.4 164.85 95.05 164.95 94.75
L 166.45 93.5
Q 233.6 65.1 378.2 46.85 331.15 42.05 281.05 37.8
M 567.9 23.7
Q 568.35 23.8 568.9 23.85
L 568.55 18.25
Q 553.05 18.5 537.8 18.85
L 537.8 19.8
Q 552.9 21.8 567.9 23.7
M 832.75 638.35
Q 940 601.85 1040.7 544.7 1044.7 423.45 1035.95 292.1 932.45 318.2 830.15 350.65 837.3 496.7 832.75 638.35
M 773.45 52.4
Q 828 46.25 885.05 41.8 775.15 27.7 637.05 21.1 636.6 21 636.15 21
L 595.05 27.3
Q 687.45 39.65 773.45 52.4
M 812.25 122.1
L 811.95 120.6
Q 722.05 95.9 605.4 76.65 483.95 98.2 378.05 129.85
L 377.85 130.55
Q 489.8 154.2 608.75 189.7 697.75 147.05 811.95 122.2 812.1 122.1 812.25 122.1
M 1132.05 271.1
L 1132.05 270.95 1127.55 271.25 1132.05 271.1
M 1016 93.2
L 1016.1 93.2
Q 1016.003125 92.909375 1016 92.8
L 1016 93.2
M 1083.45 89.65
L 1083.35 89.2
Q 1049 90.65 1016.25 93.2
L 1016.1 93.25
Q 1029.5 195.35 1035.95 292.1 1067.25 284.3 1098.7 277 1099.45 276.75 1100.15 276.6
L 1098.6 269.95
Q 1094.25 178.2 1083.45 89.65 Z"/>

<path fill="#81BAE5" stroke="none" d="
M 608.75 692.65
Q 608.7 692.6 608.55 692.6 608.45 692.6 608.3 692.5 483.9 663.6 362.85 622.5 365.2 733.55 372.6 843.7 372.95 848.75 373.25 853.85 374.9 877 376.65 900.1
L 375.65 902.55
Q 483.4 944.5 608.75 976.25
L 608.75 936.75 608.75 711 608.75 692.65
M 27.4 269.15
L 25.65 269.1
Q 18.55 374.25 22.95 480.8
L 24.55 480.75
Q 82.3 509.7 140.85 535.75 139 487.55 139 439.7 138.95 364.15 143.75 290.05 85.6 278.2 27.4 269.15
M 376.5 131.1
L 376.65 130.3
Q 268.05 107.4 166.25 95.6
L 166.15 95.6
Q 166 95.6 165.85 95.6 165.4 95.5 164.85 95.4 149.95 191.45 143.75 290.05 254.35 312.45 364.55 344.9 368.2 237.95 376.5 131.1
M 1101.6 507.95
Q 1071.45 527.3 1040.7 544.7 1037.1 655.55 1022.75 758.2 1032.75 751.05 1042.55 743.7 1065.65 726.4 1087.95 707.8 1088.1 706.25 1088.25 704.7 1088.35 704.2 1088.4 703.55 1088.8 699.5 1089.2 695.5
L 1090.2 685.4
Q 1098.55 595.35 1101.6 507.95
M 1111.8 506.05
L 1110.3 502.35
Q 1110 502.5 1109.75 502.75
L 1109.75 502.8
Q 1107.85 504.05 1106 505.2 1105.7 505.35 1105.55 505.5 1103.55 506.75 1101.6 507.95
L 1111.8 508.4
Q 1111.8 507.2 1111.8 506.05
M 1133.35 488.15
L 1133.35 488.1 1131.7 488.1 1133.35 488.15
M 1016.1 93.25
L 1016.1 93.2 1016 93.2
Q 905.7 101.8 812.25 122.1 812.1 122.1 811.95 122.2 824.6 237.8 830.15 350.65 932.45 318.2 1035.95 292.1 1029.5 195.35 1016.1 93.25 Z"/>

<path fill="#BCE5D2" stroke="none" d="
M 139 439.7
Q 139 487.55 140.85 535.75 250.4 584.35 362.85 622.5 361.6 569 361.6 515.4 361.6 430.1 364.55 344.9 254.35 312.45 143.75 290.05 138.95 364.15 139 439.7
M 377.85 130.55
L 376.5 131.1
Q 368.2 237.95 364.55 344.9 486.85 380.85 608.75 429.1
L 608.75 429.05 608.75 189.7
Q 489.8 154.2 377.85 130.55
M 376.65 130.3
L 378.05 129.85
Q 483.95 98.2 605.4 76.65 502.3 59.6 378.2 46.85 233.6 65.1 166.45 93.5
L 166.25 95.6
Q 268.05 107.4 376.65 130.3
M 568.9 23.85
Q 568.35 23.8 567.9 23.7 552.9 21.8 537.8 19.8
L 537.8 18.85
Q 399.5 22 281 37.2
L 281.05 37.8
Q 331.15 42.05 378.2 46.85 460.55 36.45 568.1 29.4
L 568.9 23.85
M 832.75 638.35
Q 837.3 496.7 830.15 350.65 718.75 386 608.75 429.05
L 608.75 429.1 608.75 690.5 614.2 690.5
Q 614.35 690.5 614.5 690.5 726.8 674.4 832.75 638.35
M 1016 762.95
L 1022 763.8
Q 1022.35 760.95 1022.75 758.2 1037.1 655.55 1040.7 544.7 940 601.85 832.75 638.35 828.85 757.2 816.85 873.15 921.9 829.05 1016 762.95
M 1083.35 89.2
L 1084.9 83.4 1085.8 79.95
Q 1001.15 56.7 885.05 41.8 828 46.25 773.45 52.4 902.1 71.5 1016.1 91.5
L 1016.25 93.2
Q 1049 90.65 1083.35 89.2 Z"/>

<path fill="#6FAAD7" stroke="none" d="
M 591.9 27.85
Q 579.85 28.55 568.1 29.4 460.55 36.45 378.2 46.85 502.3 59.6 605.4 76.65 686 62.3 773.45 52.4 687.45 39.65 595.05 27.3
L 591.9 27.85
M 1120.55 685.85
Q 1120.55 685.55 1120.55 685.25
L 1120.5 685.9
Q 1120.506640625 685.893359375 1120.55 685.85
M 1133.35 488.15
L 1131.7 488.1
Q 1121 495.4 1110.3 502.35
L 1111.8 506.05
Q 1111.8 507.2 1111.8 508.4
L 1101.6 507.95
Q 1098.55 595.35 1090.2 685.4
L 1089.2 695.5
Q 1088.8 699.5 1088.4 703.55 1088.35 704.2 1088.25 704.7 1088.1 706.25 1087.95 707.8 1065.65 726.4 1042.55 743.7 1032.75 751.05 1022.75 758.2 1022.35 760.95 1022 763.8 1019.25 783.25 1016 802.5 1029.35 793.1 1042.55 783.25 1069.45 763.1 1095.5 741.1 1106.15 732 1116.65 722.6 1118.25 708.1 1119.7 693.65 1119.85 692.6 1119.95 691.5 1119.95 691 1120 690.5
L 1120.5 686.3 1120.5 685.9 1120.55 685.25
Q 1119.2 686.1 1117.35 685.4 1115.8 684.75 1115.35 683.25 1114.65 680.95 1116.4 679.3 1117.4 678.5 1118.7 678.4 1120.2 678.5 1121.1 679.3
L 1121.35 677
Q 1121.4 676.55 1121.4 676.1
L 1121.7 673.35
Q 1121.7 673.05 1121.7 672.75
L 1122.55 663.75
Q 1130.6 574.6 1133.35 488.15 Z"/>

<path fill="#8FE7BD" stroke="none" d="
M 568.1 29.4
Q 579.85 28.55 591.9 27.85
L 595.05 27.3
Q 593.5 27.15 592.05 26.9 580.45 25.4 568.9 23.85
L 568.1 29.4 Z"/>

<path fill="#A3D5BE" stroke="none" d="
M 1022 763.8
L 1016 762.95
Q 921.9 829.05 816.85 873.15 816.7 874.3 816.65 875.55 814.55 895.1 812.25 914.65 919.9 870 1016 802.5 1019.25 783.25 1022 763.8 Z"/>

<path fill="#8CE3B9" stroke="none" d="
M 1084.9 83.4
L 1085.9 80 1085.8 79.95 1084.9 83.4 Z"/>

<path fill="#E6B286" stroke="none" d="
M 1091.55 88.9
Q 1087.4 89.05 1083.35 89.2
L 1083.45 89.65
Q 1094.25 178.2 1098.6 269.95
L 1100.15 276.6
Q 1111.6 273.9 1123.1 271.4
L 1123.3 271.4 1123.8 271.25 1123.85 271.25
Q 1124 271.15 1124.15 271.15
L 1124.3 271.1 1131.2 269.4 1131.9 269.25
Q 1127.55 177.05 1116.65 88.15
L 1113.75 88.15
Q 1102.55 88.45 1091.55 88.9 Z"/>

<path fill="#75D5A7" stroke="none" d="
M 1084.9 83.4
L 1083.35 89.2
Q 1087.4 89.05 1091.55 88.9 1091.5 88.5 1091.5 88.15 1091.5 88.5 1091.55 88.9 1102.55 88.45 1113.75 88.15 1103.75 85 1093.4 82.05 1089.65 81 1085.9 80
L 1084.9 83.4 Z"/>
</g>

<path id="Layer1_0_1_STROKES" stroke="#3F395D" stroke-width="12" stroke-linejoin="round" stroke-linecap="round" fill="none" d="
M 885.05 41.8
Q 1001.15 56.7 1085.8 79.95
M 1016.25 93.2
Q 1049 90.65 1083.35 89.2 1087.4 89.05 1091.55 88.9 1091.5 88.5 1091.5 88.15
M 1085.8 79.95
L 1085.9 80
Q 1089.65 81 1093.4 82.05 1103.75 85 1113.75 88.15
L 1116.65 88.15
Q 1127.55 177.05 1131.9 269.25
L 1131.9 269.4
Q 1132 270.15 1132.05 270.95
L 1132.05 271.1
Q 1137 377.4 1133.35 488.1
L 1133.35 488.15
Q 1130.6 574.6 1122.55 663.75
L 1121.7 672.75
Q 1121.7 673.05 1121.7 673.35
L 1121.4 676.1
Q 1121.4 676.55 1121.35 677
L 1121.1 679.3 1120.55 685.25
Q 1120.55 685.55 1120.55 685.85 1120.506640625 685.893359375 1120.5 685.925
L 1120.5 686.3 1120 690.5
Q 1119.95 691 1119.95 691.5 1119.85 692.6 1119.7 693.65 1118.25 708.1 1116.65 722.6 1106.15 732 1095.5 741.1 1069.45 763.1 1042.55 783.25 1029.35 793.1 1016 802.5 919.9 870 812.25 914.65 715.15 954.85 608.75 976.25 483.4 944.5 375.65 902.55 260.3 857.6 165.1 801
L 165 800.9
Q 101.55 763.1 47.05 720.15 27.8 599.65 22.95 480.8 18.55 374.25 25.65 269.1 31.9 176.75 47.05 85.45
L 48.25 85.3 48.1 85.3 48.8 85.2
M 48.65 83.85
Q 153.25 53.55 281 37.2 399.5 22 537.8 18.85 553.05 18.5 568.55 18.25 603.15 19.4 636.15 21 636.6 21 637.05 21.1 775.15 27.7 885.05 41.8
M 1113.75 88.15
Q 1102.55 88.45 1091.55 88.9
M 1015.95 92.2
L 1016 92.5 1016 92.8
Q 1016.003125 92.909375 1016.1 93.2 1016.15 93.2 1016.25 93.2
M 1016.1 93.25
Q 1029.5 195.35 1035.95 292.1 1067.25 284.3 1098.7 277 1099.45 276.75 1100.15 276.6 1111.6 273.9 1123.1 271.4
L 1123.3 271.4 1123.8 271.25 1123.85 271.25
Q 1124 271.15 1124.15 271.15
L 1124.3 271.1 1131.2 269.4 1131.9 269.25
M 1016.1 93.25
L 1016.1 93.2 1016 93.2
Q 905.7 101.8 812.25 122.1 812.1 122.1 811.95 122.2 824.6 237.8 830.15 350.65 932.45 318.2 1035.95 292.1 1044.7 423.45 1040.7 544.7 1071.45 527.3 1101.6 507.95 1103.55 506.75 1105.55 505.5
M 1124.3 271.1
Q 1127.25 270.45 1130.25 269.8
L 1131.2 269.4
M 1110.3 502.35
Q 1121 495.4 1131.7 488.1
M 1022.75 758.2
Q 1022.35 760.95 1022 763.8 1019.25 783.25 1016 802.5
M 1105.55 505.5
Q 1105.7 505.35 1106 505.2 1107.85 504.05 1109.75 502.8
L 1109.75 502.75
Q 1110 502.5 1110.3 502.35
M 1120.55 685.25
L 1120.5 685.925
M 1040.7 544.7
Q 1037.1 655.55 1022.75 758.2
M 830.15 350.65
Q 837.3 496.7 832.75 638.35 940 601.85 1040.7 544.7
M 537.8 19.8
Q 552.9 21.8 567.9 23.7 568.35 23.8 568.9 23.85
M 377.85 130.55
Q 377.2 130.4 376.65 130.3 268.05 107.4 166.25 95.6
L 166.15 95.6
Q 166 95.6 165.85 95.6 165.4 95.5 164.85 95.4 149.95 191.45 143.75 290.05 254.35 312.45 364.55 344.9 368.2 237.95 376.5 131.1
M 608.75 189.7
Q 489.8 154.2 377.85 130.55
M 164.95 94.75
Q 164.85 95.05 164.85 95.4 105.55 88.6 48.55 85.55
L 48.5 85.55
M 47.8 85.45
L 47.05 85.45
M 59.05 83.85
Q 55 84.4 50.95 84.9 50.65 84.9 50.25 85
L 49.65 85.15 48.65 85.3
M 48.5 85.55
Q 48.35 85.45 48.2 85.45 47.95 85.45 47.8 85.45
M 48.65 85.3
L 48.25 85.3
M 48.8 85.2
L 49.65 85.15
M 27.4 269.15
Q 85.6 278.2 143.75 290.05 138.95 364.15 139 439.7 139 487.55 140.85 535.75 250.4 584.35 362.85 622.5 361.6 569 361.6 515.4 361.6 430.1 364.55 344.9 486.85 380.85 608.75 429.1
L 608.75 429.05 608.75 189.7
Q 697.75 147.05 811.95 122.2
M 24.55 480.75
Q 82.3 509.7 140.85 535.75 146.15 667.05 165.7 799.9
M 608.75 692.65
Q 608.7 692.6 608.55 692.6 608.45 692.6 608.3 692.5 483.9 663.6 362.85 622.5 365.2 733.55 372.6 843.7 372.95 848.75 373.25 853.85 374.9 877 376.65 900.1
M 614.2 690.5
L 608.75 691.5 608.75 692.65 608.75 711 610.3 711.55
M 608.75 691.5
L 608.75 690.5 608.75 429.1
M 614.2 690.5
Q 614.35 690.5 614.5 690.5 726.8 674.4 832.75 638.35 828.85 757.2 816.85 873.15 816.7 874.3 816.65 875.55 814.55 895.1 812.25 914.65
M 608.75 936.75
L 608.75 976.25
M 608.75 429.05
Q 718.75 386 830.15 350.65
M 608.75 711
L 608.75 936.75"/>

<path id="Layer1_0_2_STROKES" stroke="#3F395D" stroke-width="8" stroke-linejoin="round" stroke-linecap="round" fill="none" d="
M 885.05 41.8
Q 828 46.25 773.45 52.4 902.1 71.5 1016.1 91.5
M 568.1 29.4
Q 579.85 28.55 591.9 27.85
M 595.05 27.3
Q 593.5 27.15 592.05 26.9 580.45 25.4 568.9 23.85
M 568.1 29.4
Q 460.55 36.45 378.2 46.85 502.3 59.6 605.4 76.65 686 62.3 773.45 52.4 687.45 39.65 595.05 27.3
M 378.05 129.85
Q 483.95 98.2 605.4 76.65 722.05 95.9 811.95 120.6
M 166.45 93.5
Q 233.6 65.1 378.2 46.85 331.15 42.05 281.05 37.8"/>
</defs>

<g transform="matrix( 1, 0, 0, 1, 0,0) ">
<use xlink:href="#Layer1_0_FILL"/>

<use xlink:href="#Layer1_0_1_STROKES"/>

<use xlink:href="#Layer1_0_2_STROKES"/>
</g>
</svg>
